$MeshFormat
2.2 0 8
$EndMeshFormat
$Nodes
125
1 0 0 0
2 1 0 0
3 2 0 0
4 3 0 0
5 4 0 0
6 0 1 0
7 1 1 0
8 2 1 0
9 3 1 0
10 4 1 0
11 0 2 0
12 1 2 0
13 2 2 0
14 3 2 0
15 4 2 0
16 0 3 0
17 1 3 0
18 2 3 0
19 3 3 0
20 4 3 0
21 0 4 0
22 1 4 0
23 2 4 0
24 3 4 0
25 4 4 0
26 0 0 1
27 1 0 1
28 2 0 1
29 3 0 1
30 4 0 1
31 0 1 1
32 1 1 1
33 2 1 1
34 3 1 1
35 4 1 1
36 0 2 1
37 1 2 1
38 2 2 1
39 3 2 1
40 4 2 1
41 0 3 1
42 1 3 1
43 2 3 1
44 3 3 1
45 4 3 1
46 0 4 1
47 1 4 1
48 2 4 1
49 3 4 1
50 4 4 1
51 0 0 2
52 1 0 2
53 2 0 2
54 3 0 2
55 4 0 2
56 0 1 2
57 1 1 2
58 2 1 2
59 3 1 2
60 4 1 2
61 0 2 2
62 1 2 2
63 2 2 2
64 3 2 2
65 4 2 2
66 0 3 2
67 1 3 2
68 2 3 2
69 3 3 2
70 4 3 2
71 0 4 2
72 1 4 2
73 2 4 2
74 3 4 2
75 4 4 2
76 0 0 3
77 1 0 3
78 2 0 3
79 3 0 3
80 4 0 3
81 0 1 3
82 1 1 3
83 2 1 3
84 3 1 3
85 4 1 3
86 0 2 3
87 1 2 3
88 2 2 3
89 3 2 3
90 4 2 3
91 0 3 3
92 1 3 3
93 2 3 3
94 3 3 3
95 4 3 3
96 0 4 3
97 1 4 3
98 2 4 3
99 3 4 3
100 4 4 3
101 0 0 4
102 1 0 4
103 2 0 4
104 3 0 4
105 4 0 4
106 0 1 4
107 1 1 4
108 2 1 4
109 3 1 4
110 4 1 4
111 0 2 4
112 1 2 4
113 2 2 4
114 3 2 4
115 4 2 4
116 0 3 4
117 1 3 4
118 2 3 4
119 3 3 4
120 4 3 4
121 0 4 4
122 1 4 4
123 2 4 4
124 3 4 4
125 4 4 4
$EndNodes
$Elements
384
1 4 2 0 1 1 2 7 32
2 4 2 0 1 1 7 6 32
3 4 2 0 1 1 6 31 32
4 4 2 0 1 1 31 26 32
5 4 2 0 1 1 26 27 32
6 4 2 0 1 1 27 2 32
7 4 2 0 1 2 3 8 33
8 4 2 0 1 2 8 7 33
9 4 2 0 1 2 7 32 33
10 4 2 0 1 2 32 27 33
11 4 2 0 1 2 27 28 33
12 4 2 0 1 2 28 3 33
13 4 2 0 1 3 4 9 34
14 4 2 0 1 3 9 8 34
15 4 2 0 1 3 8 33 34
16 4 2 0 1 3 33 28 34
17 4 2 0 1 3 28 29 34
18 4 2 0 1 3 29 4 34
19 4 2 0 1 4 5 10 35
20 4 2 0 1 4 10 9 35
21 4 2 0 1 4 9 34 35
22 4 2 0 1 4 34 29 35
23 4 2 0 1 4 29 30 35
24 4 2 0 1 4 30 5 35
25 4 2 0 1 6 7 12 37
26 4 2 0 1 6 12 11 37
27 4 2 0 1 6 11 36 37
28 4 2 0 1 6 36 31 37
29 4 2 0 1 6 31 32 37
30 4 2 0 1 6 32 7 37
31 4 2 0 1 7 8 13 38
32 4 2 0 1 7 13 12 38
33 4 2 0 1 7 12 37 38
34 4 2 0 1 7 37 32 38
35 4 2 0 1 7 32 33 38
36 4 2 0 1 7 33 8 38
37 4 2 0 1 8 9 14 39
38 4 2 0 1 8 14 13 39
39 4 2 0 1 8 13 38 39
40 4 2 0 1 8 38 33 39
41 4 2 0 1 8 33 34 39
42 4 2 0 1 8 34 9 39
43 4 2 0 1 9 10 15 40
44 4 2 0 1 9 15 14 40
45 4 2 0 1 9 14 39 40
46 4 2 0 1 9 39 34 40
47 4 2 0 1 9 34 35 40
48 4 2 0 1 9 35 10 40
49 4 2 0 1 11 12 17 42
50 4 2 0 1 11 17 16 42
51 4 2 0 1 11 16 41 42
52 4 2 0 1 11 41 36 42
53 4 2 0 1 11 36 37 42
54 4 2 0 1 11 37 12 42
55 4 2 0 1 12 13 18 43
56 4 2 0 1 12 18 17 43
57 4 2 0 1 12 17 42 43
58 4 2 0 1 12 42 37 43
59 4 2 0 1 12 37 38 43
60 4 2 0 1 12 38 13 43
61 4 2 0 1 13 14 19 44
62 4 2 0 1 13 19 18 44
63 4 2 0 1 13 18 43 44
64 4 2 0 1 13 43 38 44
65 4 2 0 1 13 38 39 44
66 4 2 0 1 13 39 14 44
67 4 2 0 1 14 15 20 45
68 4 2 0 1 14 20 19 45
69 4 2 0 1 14 19 44 45
70 4 2 0 1 14 44 39 45
71 4 2 0 1 14 39 40 45
72 4 2 0 1 14 40 15 45
73 4 2 0 1 16 17 22 47
74 4 2 0 1 16 22 21 47
75 4 2 0 1 16 21 46 47
76 4 2 0 1 16 46 41 47
77 4 2 0 1 16 41 42 47
78 4 2 0 1 16 42 17 47
79 4 2 0 1 17 18 23 48
80 4 2 0 1 17 23 22 48
81 4 2 0 1 17 22 47 48
82 4 2 0 1 17 47 42 48
83 4 2 0 1 17 42 43 48
84 4 2 0 1 17 43 18 48
85 4 2 0 1 18 19 24 49
86 4 2 0 1 18 24 23 49
87 4 2 0 1 18 23 48 49
88 4 2 0 1 18 48 43 49
89 4 2 0 1 18 43 44 49
90 4 2 0 1 18 44 19 49
91 4 2 0 1 19 20 25 50
92 4 2 0 1 19 25 24 50
93 4 2 0 1 19 24 49 50
94 4 2 0 1 19 49 44 50
95 4 2 0 1 19 44 45 50
96 4 2 0 1 19 45 20 50
97 4 2 0 1 26 27 32 57
98 4 2 0 1 26 32 31 57
99 4 2 0 1 26 31 56 57
100 4 2 0 1 26 56 51 57
101 4 2 0 1 26 51 52 57
102 4 2 0 1 26 52 27 57
103 4 2 0 1 27 28 33 58
104 4 2 0 1 27 33 32 58
105 4 2 0 1 27 32 57 58
106 4 2 0 1 27 57 52 58
107 4 2 0 1 27 52 53 58
108 4 2 0 1 27 53 28 58
109 4 2 0 1 28 29 34 59
110 4 2 0 1 28 34 33 59
111 4 2 0 1 28 33 58 59
112 4 2 0 1 28 58 53 59
113 4 2 0 1 28 53 54 59
114 4 2 0 1 28 54 29 59
115 4 2 0 1 29 30 35 60
116 4 2 0 1 29 35 34 60
117 4 2 0 1 29 34 59 60
118 4 2 0 1 29 59 54 60
119 4 2 0 1 29 54 55 60
120 4 2 0 1 29 55 30 60
121 4 2 0 1 31 32 37 62
122 4 2 0 1 31 37 36 62
123 4 2 0 1 31 36 61 62
124 4 2 0 1 31 61 56 62
125 4 2 0 1 31 56 57 62
126 4 2 0 1 31 57 32 62
127 4 2 0 1 32 33 38 63
128 4 2 0 1 32 38 37 63
129 4 2 0 1 32 37 62 63
130 4 2 0 1 32 62 57 63
131 4 2 0 1 32 57 58 63
132 4 2 0 1 32 58 33 63
133 4 2 0 1 33 34 39 64
134 4 2 0 1 33 39 38 64
135 4 2 0 1 33 38 63 64
136 4 2 0 1 33 63 58 64
137 4 2 0 1 33 58 59 64
138 4 2 0 1 33 59 34 64
139 4 2 0 1 34 35 40 65
140 4 2 0 1 34 40 39 65
141 4 2 0 1 34 39 64 65
142 4 2 0 1 34 64 59 65
143 4 2 0 1 34 59 60 65
144 4 2 0 1 34 60 35 65
145 4 2 0 1 36 37 42 67
146 4 2 0 1 36 42 41 67
147 4 2 0 1 36 41 66 67
148 4 2 0 1 36 66 61 67
149 4 2 0 1 36 61 62 67
150 4 2 0 1 36 62 37 67
151 4 2 0 1 37 38 43 68
152 4 2 0 1 37 43 42 68
153 4 2 0 1 37 42 67 68
154 4 2 0 1 37 67 62 68
155 4 2 0 1 37 62 63 68
156 4 2 0 1 37 63 38 68
157 4 2 0 1 38 39 44 69
158 4 2 0 1 38 44 43 69
159 4 2 0 1 38 43 68 69
160 4 2 0 1 38 68 63 69
161 4 2 0 1 38 63 64 69
162 4 2 0 1 38 64 39 69
163 4 2 0 1 39 40 45 70
164 4 2 0 1 39 45 44 70
165 4 2 0 1 39 44 69 70
166 4 2 0 1 39 69 64 70
167 4 2 0 1 39 64 65 70
168 4 2 0 1 39 65 40 70
169 4 2 0 1 41 42 47 72
170 4 2 0 1 41 47 46 72
171 4 2 0 1 41 46 71 72
172 4 2 0 1 41 71 66 72
173 4 2 0 1 41 66 67 72
174 4 2 0 1 41 67 42 72
175 4 2 0 1 42 43 48 73
176 4 2 0 1 42 48 47 73
177 4 2 0 1 42 47 72 73
178 4 2 0 1 42 72 67 73
179 4 2 0 1 42 67 68 73
180 4 2 0 1 42 68 43 73
181 4 2 0 1 43 44 49 74
182 4 2 0 1 43 49 48 74
183 4 2 0 1 43 48 73 74
184 4 2 0 1 43 73 68 74
185 4 2 0 1 43 68 69 74
186 4 2 0 1 43 69 44 74
187 4 2 0 1 44 45 50 75
188 4 2 0 1 44 50 49 75
189 4 2 0 1 44 49 74 75
190 4 2 0 1 44 74 69 75
191 4 2 0 1 44 69 70 75
192 4 2 0 1 44 70 45 75
193 4 2 0 1 51 52 57 82
194 4 2 0 1 51 57 56 82
195 4 2 0 1 51 56 81 82
196 4 2 0 1 51 81 76 82
197 4 2 0 1 51 76 77 82
198 4 2 0 1 51 77 52 82
199 4 2 0 1 52 53 58 83
200 4 2 0 1 52 58 57 83
201 4 2 0 1 52 57 82 83
202 4 2 0 1 52 82 77 83
203 4 2 0 1 52 77 78 83
204 4 2 0 1 52 78 53 83
205 4 2 0 1 53 54 59 84
206 4 2 0 1 53 59 58 84
207 4 2 0 1 53 58 83 84
208 4 2 0 1 53 83 78 84
209 4 2 0 1 53 78 79 84
210 4 2 0 1 53 79 54 84
211 4 2 0 1 54 55 60 85
212 4 2 0 1 54 60 59 85
213 4 2 0 1 54 59 84 85
214 4 2 0 1 54 84 79 85
215 4 2 0 1 54 79 80 85
216 4 2 0 1 54 80 55 85
217 4 2 0 1 56 57 62 87
218 4 2 0 1 56 62 61 87
219 4 2 0 1 56 61 86 87
220 4 2 0 1 56 86 81 87
221 4 2 0 1 56 81 82 87
222 4 2 0 1 56 82 57 87
223 4 2 0 1 57 58 63 88
224 4 2 0 1 57 63 62 88
225 4 2 0 1 57 62 87 88
226 4 2 0 1 57 87 82 88
227 4 2 0 1 57 82 83 88
228 4 2 0 1 57 83 58 88
229 4 2 0 1 58 59 64 89
230 4 2 0 1 58 64 63 89
231 4 2 0 1 58 63 88 89
232 4 2 0 1 58 88 83 89
233 4 2 0 1 58 83 84 89
234 4 2 0 1 58 84 59 89
235 4 2 0 1 59 60 65 90
236 4 2 0 1 59 65 64 90
237 4 2 0 1 59 64 89 90
238 4 2 0 1 59 89 84 90
239 4 2 0 1 59 84 85 90
240 4 2 0 1 59 85 60 90
241 4 2 0 1 61 62 67 92
242 4 2 0 1 61 67 66 92
243 4 2 0 1 61 66 91 92
244 4 2 0 1 61 91 86 92
245 4 2 0 1 61 86 87 92
246 4 2 0 1 61 87 62 92
247 4 2 0 1 62 63 68 93
248 4 2 0 1 62 68 67 93
249 4 2 0 1 62 67 92 93
250 4 2 0 1 62 92 87 93
251 4 2 0 1 62 87 88 93
252 4 2 0 1 62 88 63 93
253 4 2 0 1 63 64 69 94
254 4 2 0 1 63 69 68 94
255 4 2 0 1 63 68 93 94
256 4 2 0 1 63 93 88 94
257 4 2 0 1 63 88 89 94
258 4 2 0 1 63 89 64 94
259 4 2 0 1 64 65 70 95
260 4 2 0 1 64 70 69 95
261 4 2 0 1 64 69 94 95
262 4 2 0 1 64 94 89 95
263 4 2 0 1 64 89 90 95
264 4 2 0 1 64 90 65 95
265 4 2 0 1 66 67 72 97
266 4 2 0 1 66 72 71 97
267 4 2 0 1 66 71 96 97
268 4 2 0 1 66 96 91 97
269 4 2 0 1 66 91 92 97
270 4 2 0 1 66 92 67 97
271 4 2 0 1 67 68 73 98
272 4 2 0 1 67 73 72 98
273 4 2 0 1 67 72 97 98
274 4 2 0 1 67 97 92 98
275 4 2 0 1 67 92 93 98
276 4 2 0 1 67 93 68 98
277 4 2 0 1 68 69 74 99
278 4 2 0 1 68 74 73 99
279 4 2 0 1 68 73 98 99
280 4 2 0 1 68 98 93 99
281 4 2 0 1 68 93 94 99
282 4 2 0 1 68 94 69 99
283 4 2 0 1 69 70 75 100
284 4 2 0 1 69 75 74 100
285 4 2 0 1 69 74 99 100
286 4 2 0 1 69 99 94 100
287 4 2 0 1 69 94 95 100
288 4 2 0 1 69 95 70 100
289 4 2 0 1 76 77 82 107
290 4 2 0 1 76 82 81 107
291 4 2 0 1 76 81 106 107
292 4 2 0 1 76 106 101 107
293 4 2 0 1 76 101 102 107
294 4 2 0 1 76 102 77 107
295 4 2 0 1 77 78 83 108
296 4 2 0 1 77 83 82 108
297 4 2 0 1 77 82 107 108
298 4 2 0 1 77 107 102 108
299 4 2 0 1 77 102 103 108
300 4 2 0 1 77 103 78 108
301 4 2 0 1 78 79 84 109
302 4 2 0 1 78 84 83 109
303 4 2 0 1 78 83 108 109
304 4 2 0 1 78 108 103 109
305 4 2 0 1 78 103 104 109
306 4 2 0 1 78 104 79 109
307 4 2 0 1 79 80 85 110
308 4 2 0 1 79 85 84 110
309 4 2 0 1 79 84 109 110
310 4 2 0 1 79 109 104 110
311 4 2 0 1 79 104 105 110
312 4 2 0 1 79 105 80 110
313 4 2 0 1 81 82 87 112
314 4 2 0 1 81 87 86 112
315 4 2 0 1 81 86 111 112
316 4 2 0 1 81 111 106 112
317 4 2 0 1 81 106 107 112
318 4 2 0 1 81 107 82 112
319 4 2 0 1 82 83 88 113
320 4 2 0 1 82 88 87 113
321 4 2 0 1 82 87 112 113
322 4 2 0 1 82 112 107 113
323 4 2 0 1 82 107 108 113
324 4 2 0 1 82 108 83 113
325 4 2 0 1 83 84 89 114
326 4 2 0 1 83 89 88 114
327 4 2 0 1 83 88 113 114
328 4 2 0 1 83 113 108 114
329 4 2 0 1 83 108 109 114
330 4 2 0 1 83 109 84 114
331 4 2 0 1 84 85 90 115
332 4 2 0 1 84 90 89 115
333 4 2 0 1 84 89 114 115
334 4 2 0 1 84 114 109 115
335 4 2 0 1 84 109 110 115
336 4 2 0 1 84 110 85 115
337 4 2 0 1 86 87 92 117
338 4 2 0 1 86 92 91 117
339 4 2 0 1 86 91 116 117
340 4 2 0 1 86 116 111 117
341 4 2 0 1 86 111 112 117
342 4 2 0 1 86 112 87 117
343 4 2 0 1 87 88 93 118
344 4 2 0 1 87 93 92 118
345 4 2 0 1 87 92 117 118
346 4 2 0 1 87 117 112 118
347 4 2 0 1 87 112 113 118
348 4 2 0 1 87 113 88 118
349 4 2 0 1 88 89 94 119
350 4 2 0 1 88 94 93 119
351 4 2 0 1 88 93 118 119
352 4 2 0 1 88 118 113 119
353 4 2 0 1 88 113 114 119
354 4 2 0 1 88 114 89 119
355 4 2 0 1 89 90 95 120
356 4 2 0 1 89 95 94 120
357 4 2 0 1 89 94 119 120
358 4 2 0 1 89 119 114 120
359 4 2 0 1 89 114 115 120
360 4 2 0 1 89 115 90 120
361 4 2 0 1 91 92 97 122
362 4 2 0 1 91 97 96 122
363 4 2 0 1 91 96 121 122
364 4 2 0 1 91 121 116 122
365 4 2 0 1 91 116 117 122
366 4 2 0 1 91 117 92 122
367 4 2 0 1 92 93 98 123
368 4 2 0 1 92 98 97 123
369 4 2 0 1 92 97 122 123
370 4 2 0 1 92 122 117 123
371 4 2 0 1 92 117 118 123
372 4 2 0 1 92 118 93 123
373 4 2 0 1 93 94 99 124
374 4 2 0 1 93 99 98 124
375 4 2 0 1 93 98 123 124
376 4 2 0 1 93 123 118 124
377 4 2 0 1 93 118 119 124
378 4 2 0 1 93 119 94 124
379 4 2 0 1 94 95 100 125
380 4 2 0 1 94 100 99 125
381 4 2 0 1 94 99 124 125
382 4 2 0 1 94 124 119 125
383 4 2 0 1 94 119 120 125
384 4 2 0 1 94 120 95 125
$EndElements
