$MeshFormat
2.2 0 8
$EndMeshFormat
$Nodes
27
1 0 0 0
2 1 0 0
3 2 0 0
4 0 1 0
5 1 1 0
6 2 1 0
7 0 2 0
8 1 2 0
9 2 2 0
10 0 0 1
11 1 0 1
12 2 0 1
13 0 1 1
14 1 1 1
15 2 1 1
16 0 2 1
17 1 2 1
18 2 2 1
19 0 0 2
20 1 0 2
21 2 0 2
22 0 1 2
23 1 1 2
24 2 1 2
25 0 2 2
26 1 2 2
27 2 2 2
$EndNodes
$Elements
48
1 4 2 0 1 1 2 5 14
2 4 2 0 1 1 5 4 14
3 4 2 0 1 1 4 13 14
4 4 2 0 1 1 13 10 14
5 4 2 0 1 1 10 11 14
6 4 2 0 1 1 11 2 14
7 4 2 0 1 2 3 6 15
8 4 2 0 1 2 6 5 15
9 4 2 0 1 2 5 14 15
10 4 2 0 1 2 14 11 15
11 4 2 0 1 2 11 12 15
12 4 2 0 1 2 12 3 15
13 4 2 0 1 4 5 8 17
14 4 2 0 1 4 8 7 17
15 4 2 0 1 4 7 16 17
16 4 2 0 1 4 16 13 17
17 4 2 0 1 4 13 14 17
18 4 2 0 1 4 14 5 17
19 4 2 0 1 5 6 9 18
20 4 2 0 1 5 9 8 18
21 4 2 0 1 5 8 17 18
22 4 2 0 1 5 17 14 18
23 4 2 0 1 5 14 15 18
24 4 2 0 1 5 15 6 18
25 4 2 0 1 10 11 14 23
26 4 2 0 1 10 14 13 23
27 4 2 0 1 10 13 22 23
28 4 2 0 1 10 22 19 23
29 4 2 0 1 10 19 20 23
30 4 2 0 1 10 20 11 23
31 4 2 0 1 11 12 15 24
32 4 2 0 1 11 15 14 24
33 4 2 0 1 11 14 23 24
34 4 2 0 1 11 23 20 24
35 4 2 0 1 11 20 21 24
36 4 2 0 1 11 21 12 24
37 4 2 0 1 13 14 17 26
38 4 2 0 1 13 17 16 26
39 4 2 0 1 13 16 25 26
40 4 2 0 1 13 25 22 26
41 4 2 0 1 13 22 23 26
42 4 2 0 1 13 23 14 26
43 4 2 0 1 14 15 18 27
44 4 2 0 1 14 18 17 27
45 4 2 0 1 14 17 26 27
46 4 2 0 1 14 26 23 27
47 4 2 0 1 14 23 24 27
48 4 2 0 1 14 24 15 27
$EndElements
