$MeshFormat
2.2 0 8
$EndMeshFormat
$Nodes
343
1 0 0 0
2 1 0 0
3 2 0 0
4 3 0 0
5 4 0 0
6 5 0 0
7 6 0 0
8 0 1 0
9 1 1 0
10 2 1 0
11 3 1 0
12 4 1 0
13 5 1 0
14 6 1 0
15 0 2 0
16 1 2 0
17 2 2 0
18 3 2 0
19 4 2 0
20 5 2 0
21 6 2 0
22 0 3 0
23 1 3 0
24 2 3 0
25 3 3 0
26 4 3 0
27 5 3 0
28 6 3 0
29 0 4 0
30 1 4 0
31 2 4 0
32 3 4 0
33 4 4 0
34 5 4 0
35 6 4 0
36 0 5 0
37 1 5 0
38 2 5 0
39 3 5 0
40 4 5 0
41 5 5 0
42 6 5 0
43 0 6 0
44 1 6 0
45 2 6 0
46 3 6 0
47 4 6 0
48 5 6 0
49 6 6 0
50 0 0 1
51 1 0 1
52 2 0 1
53 3 0 1
54 4 0 1
55 5 0 1
56 6 0 1
57 0 1 1
58 1 1 1
59 2 1 1
60 3 1 1
61 4 1 1
62 5 1 1
63 6 1 1
64 0 2 1
65 1 2 1
66 2 2 1
67 3 2 1
68 4 2 1
69 5 2 1
70 6 2 1
71 0 3 1
72 1 3 1
73 2 3 1
74 3 3 1
75 4 3 1
76 5 3 1
77 6 3 1
78 0 4 1
79 1 4 1
80 2 4 1
81 3 4 1
82 4 4 1
83 5 4 1
84 6 4 1
85 0 5 1
86 1 5 1
87 2 5 1
88 3 5 1
89 4 5 1
90 5 5 1
91 6 5 1
92 0 6 1
93 1 6 1
94 2 6 1
95 3 6 1
96 4 6 1
97 5 6 1
98 6 6 1
99 0 0 2
100 1 0 2
101 2 0 2
102 3 0 2
103 4 0 2
104 5 0 2
105 6 0 2
106 0 1 2
107 1 1 2
108 2 1 2
109 3 1 2
110 4 1 2
111 5 1 2
112 6 1 2
113 0 2 2
114 1 2 2
115 2 2 2
116 3 2 2
117 4 2 2
118 5 2 2
119 6 2 2
120 0 3 2
121 1 3 2
122 2 3 2
123 3 3 2
124 4 3 2
125 5 3 2
126 6 3 2
127 0 4 2
128 1 4 2
129 2 4 2
130 3 4 2
131 4 4 2
132 5 4 2
133 6 4 2
134 0 5 2
135 1 5 2
136 2 5 2
137 3 5 2
138 4 5 2
139 5 5 2
140 6 5 2
141 0 6 2
142 1 6 2
143 2 6 2
144 3 6 2
145 4 6 2
146 5 6 2
147 6 6 2
148 0 0 3
149 1 0 3
150 2 0 3
151 3 0 3
152 4 0 3
153 5 0 3
154 6 0 3
155 0 1 3
156 1 1 3
157 2 1 3
158 3 1 3
159 4 1 3
160 5 1 3
161 6 1 3
162 0 2 3
163 1 2 3
164 2 2 3
165 3 2 3
166 4 2 3
167 5 2 3
168 6 2 3
169 0 3 3
170 1 3 3
171 2 3 3
172 3 3 3
173 4 3 3
174 5 3 3
175 6 3 3
176 0 4 3
177 1 4 3
178 2 4 3
179 3 4 3
180 4 4 3
181 5 4 3
182 6 4 3
183 0 5 3
184 1 5 3
185 2 5 3
186 3 5 3
187 4 5 3
188 5 5 3
189 6 5 3
190 0 6 3
191 1 6 3
192 2 6 3
193 3 6 3
194 4 6 3
195 5 6 3
196 6 6 3
197 0 0 4
198 1 0 4
199 2 0 4
200 3 0 4
201 4 0 4
202 5 0 4
203 6 0 4
204 0 1 4
205 1 1 4
206 2 1 4
207 3 1 4
208 4 1 4
209 5 1 4
210 6 1 4
211 0 2 4
212 1 2 4
213 2 2 4
214 3 2 4
215 4 2 4
216 5 2 4
217 6 2 4
218 0 3 4
219 1 3 4
220 2 3 4
221 3 3 4
222 4 3 4
223 5 3 4
224 6 3 4
225 0 4 4
226 1 4 4
227 2 4 4
228 3 4 4
229 4 4 4
230 5 4 4
231 6 4 4
232 0 5 4
233 1 5 4
234 2 5 4
235 3 5 4
236 4 5 4
237 5 5 4
238 6 5 4
239 0 6 4
240 1 6 4
241 2 6 4
242 3 6 4
243 4 6 4
244 5 6 4
245 6 6 4
246 0 0 5
247 1 0 5
248 2 0 5
249 3 0 5
250 4 0 5
251 5 0 5
252 6 0 5
253 0 1 5
254 1 1 5
255 2 1 5
256 3 1 5
257 4 1 5
258 5 1 5
259 6 1 5
260 0 2 5
261 1 2 5
262 2 2 5
263 3 2 5
264 4 2 5
265 5 2 5
266 6 2 5
267 0 3 5
268 1 3 5
269 2 3 5
270 3 3 5
271 4 3 5
272 5 3 5
273 6 3 5
274 0 4 5
275 1 4 5
276 2 4 5
277 3 4 5
278 4 4 5
279 5 4 5
280 6 4 5
281 0 5 5
282 1 5 5
283 2 5 5
284 3 5 5
285 4 5 5
286 5 5 5
287 6 5 5
288 0 6 5
289 1 6 5
290 2 6 5
291 3 6 5
292 4 6 5
293 5 6 5
294 6 6 5
295 0 0 6
296 1 0 6
297 2 0 6
298 3 0 6
299 4 0 6
300 5 0 6
301 6 0 6
302 0 1 6
303 1 1 6
304 2 1 6
305 3 1 6
306 4 1 6
307 5 1 6
308 6 1 6
309 0 2 6
310 1 2 6
311 2 2 6
312 3 2 6
313 4 2 6
314 5 2 6
315 6 2 6
316 0 3 6
317 1 3 6
318 2 3 6
319 3 3 6
320 4 3 6
321 5 3 6
322 6 3 6
323 0 4 6
324 1 4 6
325 2 4 6
326 3 4 6
327 4 4 6
328 5 4 6
329 6 4 6
330 0 5 6
331 1 5 6
332 2 5 6
333 3 5 6
334 4 5 6
335 5 5 6
336 6 5 6
337 0 6 6
338 1 6 6
339 2 6 6
340 3 6 6
341 4 6 6
342 5 6 6
343 6 6 6
$EndNodes
$Elements
1296
1 4 2 0 1 1 2 9 58
2 4 2 0 1 1 9 8 58
3 4 2 0 1 1 8 57 58
4 4 2 0 1 1 57 50 58
5 4 2 0 1 1 50 51 58
6 4 2 0 1 1 51 2 58
7 4 2 0 1 2 3 10 59
8 4 2 0 1 2 10 9 59
9 4 2 0 1 2 9 58 59
10 4 2 0 1 2 58 51 59
11 4 2 0 1 2 51 52 59
12 4 2 0 1 2 52 3 59
13 4 2 0 1 3 4 11 60
14 4 2 0 1 3 11 10 60
15 4 2 0 1 3 10 59 60
16 4 2 0 1 3 59 52 60
17 4 2 0 1 3 52 53 60
18 4 2 0 1 3 53 4 60
19 4 2 0 1 4 5 12 61
20 4 2 0 1 4 12 11 61
21 4 2 0 1 4 11 60 61
22 4 2 0 1 4 60 53 61
23 4 2 0 1 4 53 54 61
24 4 2 0 1 4 54 5 61
25 4 2 0 1 5 6 13 62
26 4 2 0 1 5 13 12 62
27 4 2 0 1 5 12 61 62
28 4 2 0 1 5 61 54 62
29 4 2 0 1 5 54 55 62
30 4 2 0 1 5 55 6 62
31 4 2 0 1 6 7 14 63
32 4 2 0 1 6 14 13 63
33 4 2 0 1 6 13 62 63
34 4 2 0 1 6 62 55 63
35 4 2 0 1 6 55 56 63
36 4 2 0 1 6 56 7 63
37 4 2 0 1 8 9 16 65
38 4 2 0 1 8 16 15 65
39 4 2 0 1 8 15 64 65
40 4 2 0 1 8 64 57 65
41 4 2 0 1 8 57 58 65
42 4 2 0 1 8 58 9 65
43 4 2 0 1 9 10 17 66
44 4 2 0 1 9 17 16 66
45 4 2 0 1 9 16 65 66
46 4 2 0 1 9 65 58 66
47 4 2 0 1 9 58 59 66
48 4 2 0 1 9 59 10 66
49 4 2 0 1 10 11 18 67
50 4 2 0 1 10 18 17 67
51 4 2 0 1 10 17 66 67
52 4 2 0 1 10 66 59 67
53 4 2 0 1 10 59 60 67
54 4 2 0 1 10 60 11 67
55 4 2 0 1 11 12 19 68
56 4 2 0 1 11 19 18 68
57 4 2 0 1 11 18 67 68
58 4 2 0 1 11 67 60 68
59 4 2 0 1 11 60 61 68
60 4 2 0 1 11 61 12 68
61 4 2 0 1 12 13 20 69
62 4 2 0 1 12 20 19 69
63 4 2 0 1 12 19 68 69
64 4 2 0 1 12 68 61 69
65 4 2 0 1 12 61 62 69
66 4 2 0 1 12 62 13 69
67 4 2 0 1 13 14 21 70
68 4 2 0 1 13 21 20 70
69 4 2 0 1 13 20 69 70
70 4 2 0 1 13 69 62 70
71 4 2 0 1 13 62 63 70
72 4 2 0 1 13 63 14 70
73 4 2 0 1 15 16 23 72
74 4 2 0 1 15 23 22 72
75 4 2 0 1 15 22 71 72
76 4 2 0 1 15 71 64 72
77 4 2 0 1 15 64 65 72
78 4 2 0 1 15 65 16 72
79 4 2 0 1 16 17 24 73
80 4 2 0 1 16 24 23 73
81 4 2 0 1 16 23 72 73
82 4 2 0 1 16 72 65 73
83 4 2 0 1 16 65 66 73
84 4 2 0 1 16 66 17 73
85 4 2 0 1 17 18 25 74
86 4 2 0 1 17 25 24 74
87 4 2 0 1 17 24 73 74
88 4 2 0 1 17 73 66 74
89 4 2 0 1 17 66 67 74
90 4 2 0 1 17 67 18 74
91 4 2 0 1 18 19 26 75
92 4 2 0 1 18 26 25 75
93 4 2 0 1 18 25 74 75
94 4 2 0 1 18 74 67 75
95 4 2 0 1 18 67 68 75
96 4 2 0 1 18 68 19 75
97 4 2 0 1 19 20 27 76
98 4 2 0 1 19 27 26 76
99 4 2 0 1 19 26 75 76
100 4 2 0 1 19 75 68 76
101 4 2 0 1 19 68 69 76
102 4 2 0 1 19 69 20 76
103 4 2 0 1 20 21 28 77
104 4 2 0 1 20 28 27 77
105 4 2 0 1 20 27 76 77
106 4 2 0 1 20 76 69 77
107 4 2 0 1 20 69 70 77
108 4 2 0 1 20 70 21 77
109 4 2 0 1 22 23 30 79
110 4 2 0 1 22 30 29 79
111 4 2 0 1 22 29 78 79
112 4 2 0 1 22 78 71 79
113 4 2 0 1 22 71 72 79
114 4 2 0 1 22 72 23 79
115 4 2 0 1 23 24 31 80
116 4 2 0 1 23 31 30 80
117 4 2 0 1 23 30 79 80
118 4 2 0 1 23 79 72 80
119 4 2 0 1 23 72 73 80
120 4 2 0 1 23 73 24 80
121 4 2 0 1 24 25 32 81
122 4 2 0 1 24 32 31 81
123 4 2 0 1 24 31 80 81
124 4 2 0 1 24 80 73 81
125 4 2 0 1 24 73 74 81
126 4 2 0 1 24 74 25 81
127 4 2 0 1 25 26 33 82
128 4 2 0 1 25 33 32 82
129 4 2 0 1 25 32 81 82
130 4 2 0 1 25 81 74 82
131 4 2 0 1 25 74 75 82
132 4 2 0 1 25 75 26 82
133 4 2 0 1 26 27 34 83
134 4 2 0 1 26 34 33 83
135 4 2 0 1 26 33 82 83
136 4 2 0 1 26 82 75 83
137 4 2 0 1 26 75 76 83
138 4 2 0 1 26 76 27 83
139 4 2 0 1 27 28 35 84
140 4 2 0 1 27 35 34 84
141 4 2 0 1 27 34 83 84
142 4 2 0 1 27 83 76 84
143 4 2 0 1 27 76 77 84
144 4 2 0 1 27 77 28 84
145 4 2 0 1 29 30 37 86
146 4 2 0 1 29 37 36 86
147 4 2 0 1 29 36 85 86
148 4 2 0 1 29 85 78 86
149 4 2 0 1 29 78 79 86
150 4 2 0 1 29 79 30 86
151 4 2 0 1 30 31 38 87
152 4 2 0 1 30 38 37 87
153 4 2 0 1 30 37 86 87
154 4 2 0 1 30 86 79 87
155 4 2 0 1 30 79 80 87
156 4 2 0 1 30 80 31 87
157 4 2 0 1 31 32 39 88
158 4 2 0 1 31 39 38 88
159 4 2 0 1 31 38 87 88
160 4 2 0 1 31 87 80 88
161 4 2 0 1 31 80 81 88
162 4 2 0 1 31 81 32 88
163 4 2 0 1 32 33 40 89
164 4 2 0 1 32 40 39 89
165 4 2 0 1 32 39 88 89
166 4 2 0 1 32 88 81 89
167 4 2 0 1 32 81 82 89
168 4 2 0 1 32 82 33 89
169 4 2 0 1 33 34 41 90
170 4 2 0 1 33 41 40 90
171 4 2 0 1 33 40 89 90
172 4 2 0 1 33 89 82 90
173 4 2 0 1 33 82 83 90
174 4 2 0 1 33 83 34 90
175 4 2 0 1 34 35 42 91
176 4 2 0 1 34 42 41 91
177 4 2 0 1 34 41 90 91
178 4 2 0 1 34 90 83 91
179 4 2 0 1 34 83 84 91
180 4 2 0 1 34 84 35 91
181 4 2 0 1 36 37 44 93
182 4 2 0 1 36 44 43 93
183 4 2 0 1 36 43 92 93
184 4 2 0 1 36 92 85 93
185 4 2 0 1 36 85 86 93
186 4 2 0 1 36 86 37 93
187 4 2 0 1 37 38 45 94
188 4 2 0 1 37 45 44 94
189 4 2 0 1 37 44 93 94
190 4 2 0 1 37 93 86 94
191 4 2 0 1 37 86 87 94
192 4 2 0 1 37 87 38 94
193 4 2 0 1 38 39 46 95
194 4 2 0 1 38 46 45 95
195 4 2 0 1 38 45 94 95
196 4 2 0 1 38 94 87 95
197 4 2 0 1 38 87 88 95
198 4 2 0 1 38 88 39 95
199 4 2 0 1 39 40 47 96
200 4 2 0 1 39 47 46 96
201 4 2 0 1 39 46 95 96
202 4 2 0 1 39 95 88 96
203 4 2 0 1 39 88 89 96
204 4 2 0 1 39 89 40 96
205 4 2 0 1 40 41 48 97
206 4 2 0 1 40 48 47 97
207 4 2 0 1 40 47 96 97
208 4 2 0 1 40 96 89 97
209 4 2 0 1 40 89 90 97
210 4 2 0 1 40 90 41 97
211 4 2 0 1 41 42 49 98
212 4 2 0 1 41 49 48 98
213 4 2 0 1 41 48 97 98
214 4 2 0 1 41 97 90 98
215 4 2 0 1 41 90 91 98
216 4 2 0 1 41 91 42 98
217 4 2 0 1 50 51 58 107
218 4 2 0 1 50 58 57 107
219 4 2 0 1 50 57 106 107
220 4 2 0 1 50 106 99 107
221 4 2 0 1 50 99 100 107
222 4 2 0 1 50 100 51 107
223 4 2 0 1 51 52 59 108
224 4 2 0 1 51 59 58 108
225 4 2 0 1 51 58 107 108
226 4 2 0 1 51 107 100 108
227 4 2 0 1 51 100 101 108
228 4 2 0 1 51 101 52 108
229 4 2 0 1 52 53 60 109
230 4 2 0 1 52 60 59 109
231 4 2 0 1 52 59 108 109
232 4 2 0 1 52 108 101 109
233 4 2 0 1 52 101 102 109
234 4 2 0 1 52 102 53 109
235 4 2 0 1 53 54 61 110
236 4 2 0 1 53 61 60 110
237 4 2 0 1 53 60 109 110
238 4 2 0 1 53 109 102 110
239 4 2 0 1 53 102 103 110
240 4 2 0 1 53 103 54 110
241 4 2 0 1 54 55 62 111
242 4 2 0 1 54 62 61 111
243 4 2 0 1 54 61 110 111
244 4 2 0 1 54 110 103 111
245 4 2 0 1 54 103 104 111
246 4 2 0 1 54 104 55 111
247 4 2 0 1 55 56 63 112
248 4 2 0 1 55 63 62 112
249 4 2 0 1 55 62 111 112
250 4 2 0 1 55 111 104 112
251 4 2 0 1 55 104 105 112
252 4 2 0 1 55 105 56 112
253 4 2 0 1 57 58 65 114
254 4 2 0 1 57 65 64 114
255 4 2 0 1 57 64 113 114
256 4 2 0 1 57 113 106 114
257 4 2 0 1 57 106 107 114
258 4 2 0 1 57 107 58 114
259 4 2 0 1 58 59 66 115
260 4 2 0 1 58 66 65 115
261 4 2 0 1 58 65 114 115
262 4 2 0 1 58 114 107 115
263 4 2 0 1 58 107 108 115
264 4 2 0 1 58 108 59 115
265 4 2 0 1 59 60 67 116
266 4 2 0 1 59 67 66 116
267 4 2 0 1 59 66 115 116
268 4 2 0 1 59 115 108 116
269 4 2 0 1 59 108 109 116
270 4 2 0 1 59 109 60 116
271 4 2 0 1 60 61 68 117
272 4 2 0 1 60 68 67 117
273 4 2 0 1 60 67 116 117
274 4 2 0 1 60 116 109 117
275 4 2 0 1 60 109 110 117
276 4 2 0 1 60 110 61 117
277 4 2 0 1 61 62 69 118
278 4 2 0 1 61 69 68 118
279 4 2 0 1 61 68 117 118
280 4 2 0 1 61 117 110 118
281 4 2 0 1 61 110 111 118
282 4 2 0 1 61 111 62 118
283 4 2 0 1 62 63 70 119
284 4 2 0 1 62 70 69 119
285 4 2 0 1 62 69 118 119
286 4 2 0 1 62 118 111 119
287 4 2 0 1 62 111 112 119
288 4 2 0 1 62 112 63 119
289 4 2 0 1 64 65 72 121
290 4 2 0 1 64 72 71 121
291 4 2 0 1 64 71 120 121
292 4 2 0 1 64 120 113 121
293 4 2 0 1 64 113 114 121
294 4 2 0 1 64 114 65 121
295 4 2 0 1 65 66 73 122
296 4 2 0 1 65 73 72 122
297 4 2 0 1 65 72 121 122
298 4 2 0 1 65 121 114 122
299 4 2 0 1 65 114 115 122
300 4 2 0 1 65 115 66 122
301 4 2 0 1 66 67 74 123
302 4 2 0 1 66 74 73 123
303 4 2 0 1 66 73 122 123
304 4 2 0 1 66 122 115 123
305 4 2 0 1 66 115 116 123
306 4 2 0 1 66 116 67 123
307 4 2 0 1 67 68 75 124
308 4 2 0 1 67 75 74 124
309 4 2 0 1 67 74 123 124
310 4 2 0 1 67 123 116 124
311 4 2 0 1 67 116 117 124
312 4 2 0 1 67 117 68 124
313 4 2 0 1 68 69 76 125
314 4 2 0 1 68 76 75 125
315 4 2 0 1 68 75 124 125
316 4 2 0 1 68 124 117 125
317 4 2 0 1 68 117 118 125
318 4 2 0 1 68 118 69 125
319 4 2 0 1 69 70 77 126
320 4 2 0 1 69 77 76 126
321 4 2 0 1 69 76 125 126
322 4 2 0 1 69 125 118 126
323 4 2 0 1 69 118 119 126
324 4 2 0 1 69 119 70 126
325 4 2 0 1 71 72 79 128
326 4 2 0 1 71 79 78 128
327 4 2 0 1 71 78 127 128
328 4 2 0 1 71 127 120 128
329 4 2 0 1 71 120 121 128
330 4 2 0 1 71 121 72 128
331 4 2 0 1 72 73 80 129
332 4 2 0 1 72 80 79 129
333 4 2 0 1 72 79 128 129
334 4 2 0 1 72 128 121 129
335 4 2 0 1 72 121 122 129
336 4 2 0 1 72 122 73 129
337 4 2 0 1 73 74 81 130
338 4 2 0 1 73 81 80 130
339 4 2 0 1 73 80 129 130
340 4 2 0 1 73 129 122 130
341 4 2 0 1 73 122 123 130
342 4 2 0 1 73 123 74 130
343 4 2 0 1 74 75 82 131
344 4 2 0 1 74 82 81 131
345 4 2 0 1 74 81 130 131
346 4 2 0 1 74 130 123 131
347 4 2 0 1 74 123 124 131
348 4 2 0 1 74 124 75 131
349 4 2 0 1 75 76 83 132
350 4 2 0 1 75 83 82 132
351 4 2 0 1 75 82 131 132
352 4 2 0 1 75 131 124 132
353 4 2 0 1 75 124 125 132
354 4 2 0 1 75 125 76 132
355 4 2 0 1 76 77 84 133
356 4 2 0 1 76 84 83 133
357 4 2 0 1 76 83 132 133
358 4 2 0 1 76 132 125 133
359 4 2 0 1 76 125 126 133
360 4 2 0 1 76 126 77 133
361 4 2 0 1 78 79 86 135
362 4 2 0 1 78 86 85 135
363 4 2 0 1 78 85 134 135
364 4 2 0 1 78 134 127 135
365 4 2 0 1 78 127 128 135
366 4 2 0 1 78 128 79 135
367 4 2 0 1 79 80 87 136
368 4 2 0 1 79 87 86 136
369 4 2 0 1 79 86 135 136
370 4 2 0 1 79 135 128 136
371 4 2 0 1 79 128 129 136
372 4 2 0 1 79 129 80 136
373 4 2 0 1 80 81 88 137
374 4 2 0 1 80 88 87 137
375 4 2 0 1 80 87 136 137
376 4 2 0 1 80 136 129 137
377 4 2 0 1 80 129 130 137
378 4 2 0 1 80 130 81 137
379 4 2 0 1 81 82 89 138
380 4 2 0 1 81 89 88 138
381 4 2 0 1 81 88 137 138
382 4 2 0 1 81 137 130 138
383 4 2 0 1 81 130 131 138
384 4 2 0 1 81 131 82 138
385 4 2 0 1 82 83 90 139
386 4 2 0 1 82 90 89 139
387 4 2 0 1 82 89 138 139
388 4 2 0 1 82 138 131 139
389 4 2 0 1 82 131 132 139
390 4 2 0 1 82 132 83 139
391 4 2 0 1 83 84 91 140
392 4 2 0 1 83 91 90 140
393 4 2 0 1 83 90 139 140
394 4 2 0 1 83 139 132 140
395 4 2 0 1 83 132 133 140
396 4 2 0 1 83 133 84 140
397 4 2 0 1 85 86 93 142
398 4 2 0 1 85 93 92 142
399 4 2 0 1 85 92 141 142
400 4 2 0 1 85 141 134 142
401 4 2 0 1 85 134 135 142
402 4 2 0 1 85 135 86 142
403 4 2 0 1 86 87 94 143
404 4 2 0 1 86 94 93 143
405 4 2 0 1 86 93 142 143
406 4 2 0 1 86 142 135 143
407 4 2 0 1 86 135 136 143
408 4 2 0 1 86 136 87 143
409 4 2 0 1 87 88 95 144
410 4 2 0 1 87 95 94 144
411 4 2 0 1 87 94 143 144
412 4 2 0 1 87 143 136 144
413 4 2 0 1 87 136 137 144
414 4 2 0 1 87 137 88 144
415 4 2 0 1 88 89 96 145
416 4 2 0 1 88 96 95 145
417 4 2 0 1 88 95 144 145
418 4 2 0 1 88 144 137 145
419 4 2 0 1 88 137 138 145
420 4 2 0 1 88 138 89 145
421 4 2 0 1 89 90 97 146
422 4 2 0 1 89 97 96 146
423 4 2 0 1 89 96 145 146
424 4 2 0 1 89 145 138 146
425 4 2 0 1 89 138 139 146
426 4 2 0 1 89 139 90 146
427 4 2 0 1 90 91 98 147
428 4 2 0 1 90 98 97 147
429 4 2 0 1 90 97 146 147
430 4 2 0 1 90 146 139 147
431 4 2 0 1 90 139 140 147
432 4 2 0 1 90 140 91 147
433 4 2 0 1 99 100 107 156
434 4 2 0 1 99 107 106 156
435 4 2 0 1 99 106 155 156
436 4 2 0 1 99 155 148 156
437 4 2 0 1 99 148 149 156
438 4 2 0 1 99 149 100 156
439 4 2 0 1 100 101 108 157
440 4 2 0 1 100 108 107 157
441 4 2 0 1 100 107 156 157
442 4 2 0 1 100 156 149 157
443 4 2 0 1 100 149 150 157
444 4 2 0 1 100 150 101 157
445 4 2 0 1 101 102 109 158
446 4 2 0 1 101 109 108 158
447 4 2 0 1 101 108 157 158
448 4 2 0 1 101 157 150 158
449 4 2 0 1 101 150 151 158
450 4 2 0 1 101 151 102 158
451 4 2 0 1 102 103 110 159
452 4 2 0 1 102 110 109 159
453 4 2 0 1 102 109 158 159
454 4 2 0 1 102 158 151 159
455 4 2 0 1 102 151 152 159
456 4 2 0 1 102 152 103 159
457 4 2 0 1 103 104 111 160
458 4 2 0 1 103 111 110 160
459 4 2 0 1 103 110 159 160
460 4 2 0 1 103 159 152 160
461 4 2 0 1 103 152 153 160
462 4 2 0 1 103 153 104 160
463 4 2 0 1 104 105 112 161
464 4 2 0 1 104 112 111 161
465 4 2 0 1 104 111 160 161
466 4 2 0 1 104 160 153 161
467 4 2 0 1 104 153 154 161
468 4 2 0 1 104 154 105 161
469 4 2 0 1 106 107 114 163
470 4 2 0 1 106 114 113 163
471 4 2 0 1 106 113 162 163
472 4 2 0 1 106 162 155 163
473 4 2 0 1 106 155 156 163
474 4 2 0 1 106 156 107 163
475 4 2 0 1 107 108 115 164
476 4 2 0 1 107 115 114 164
477 4 2 0 1 107 114 163 164
478 4 2 0 1 107 163 156 164
479 4 2 0 1 107 156 157 164
480 4 2 0 1 107 157 108 164
481 4 2 0 1 108 109 116 165
482 4 2 0 1 108 116 115 165
483 4 2 0 1 108 115 164 165
484 4 2 0 1 108 164 157 165
485 4 2 0 1 108 157 158 165
486 4 2 0 1 108 158 109 165
487 4 2 0 1 109 110 117 166
488 4 2 0 1 109 117 116 166
489 4 2 0 1 109 116 165 166
490 4 2 0 1 109 165 158 166
491 4 2 0 1 109 158 159 166
492 4 2 0 1 109 159 110 166
493 4 2 0 1 110 111 118 167
494 4 2 0 1 110 118 117 167
495 4 2 0 1 110 117 166 167
496 4 2 0 1 110 166 159 167
497 4 2 0 1 110 159 160 167
498 4 2 0 1 110 160 111 167
499 4 2 0 1 111 112 119 168
500 4 2 0 1 111 119 118 168
501 4 2 0 1 111 118 167 168
502 4 2 0 1 111 167 160 168
503 4 2 0 1 111 160 161 168
504 4 2 0 1 111 161 112 168
505 4 2 0 1 113 114 121 170
506 4 2 0 1 113 121 120 170
507 4 2 0 1 113 120 169 170
508 4 2 0 1 113 169 162 170
509 4 2 0 1 113 162 163 170
510 4 2 0 1 113 163 114 170
511 4 2 0 1 114 115 122 171
512 4 2 0 1 114 122 121 171
513 4 2 0 1 114 121 170 171
514 4 2 0 1 114 170 163 171
515 4 2 0 1 114 163 164 171
516 4 2 0 1 114 164 115 171
517 4 2 0 1 115 116 123 172
518 4 2 0 1 115 123 122 172
519 4 2 0 1 115 122 171 172
520 4 2 0 1 115 171 164 172
521 4 2 0 1 115 164 165 172
522 4 2 0 1 115 165 116 172
523 4 2 0 1 116 117 124 173
524 4 2 0 1 116 124 123 173
525 4 2 0 1 116 123 172 173
526 4 2 0 1 116 172 165 173
527 4 2 0 1 116 165 166 173
528 4 2 0 1 116 166 117 173
529 4 2 0 1 117 118 125 174
530 4 2 0 1 117 125 124 174
531 4 2 0 1 117 124 173 174
532 4 2 0 1 117 173 166 174
533 4 2 0 1 117 166 167 174
534 4 2 0 1 117 167 118 174
535 4 2 0 1 118 119 126 175
536 4 2 0 1 118 126 125 175
537 4 2 0 1 118 125 174 175
538 4 2 0 1 118 174 167 175
539 4 2 0 1 118 167 168 175
540 4 2 0 1 118 168 119 175
541 4 2 0 1 120 121 128 177
542 4 2 0 1 120 128 127 177
543 4 2 0 1 120 127 176 177
544 4 2 0 1 120 176 169 177
545 4 2 0 1 120 169 170 177
546 4 2 0 1 120 170 121 177
547 4 2 0 1 121 122 129 178
548 4 2 0 1 121 129 128 178
549 4 2 0 1 121 128 177 178
550 4 2 0 1 121 177 170 178
551 4 2 0 1 121 170 171 178
552 4 2 0 1 121 171 122 178
553 4 2 0 1 122 123 130 179
554 4 2 0 1 122 130 129 179
555 4 2 0 1 122 129 178 179
556 4 2 0 1 122 178 171 179
557 4 2 0 1 122 171 172 179
558 4 2 0 1 122 172 123 179
559 4 2 0 1 123 124 131 180
560 4 2 0 1 123 131 130 180
561 4 2 0 1 123 130 179 180
562 4 2 0 1 123 179 172 180
563 4 2 0 1 123 172 173 180
564 4 2 0 1 123 173 124 180
565 4 2 0 1 124 125 132 181
566 4 2 0 1 124 132 131 181
567 4 2 0 1 124 131 180 181
568 4 2 0 1 124 180 173 181
569 4 2 0 1 124 173 174 181
570 4 2 0 1 124 174 125 181
571 4 2 0 1 125 126 133 182
572 4 2 0 1 125 133 132 182
573 4 2 0 1 125 132 181 182
574 4 2 0 1 125 181 174 182
575 4 2 0 1 125 174 175 182
576 4 2 0 1 125 175 126 182
577 4 2 0 1 127 128 135 184
578 4 2 0 1 127 135 134 184
579 4 2 0 1 127 134 183 184
580 4 2 0 1 127 183 176 184
581 4 2 0 1 127 176 177 184
582 4 2 0 1 127 177 128 184
583 4 2 0 1 128 129 136 185
584 4 2 0 1 128 136 135 185
585 4 2 0 1 128 135 184 185
586 4 2 0 1 128 184 177 185
587 4 2 0 1 128 177 178 185
588 4 2 0 1 128 178 129 185
589 4 2 0 1 129 130 137 186
590 4 2 0 1 129 137 136 186
591 4 2 0 1 129 136 185 186
592 4 2 0 1 129 185 178 186
593 4 2 0 1 129 178 179 186
594 4 2 0 1 129 179 130 186
595 4 2 0 1 130 131 138 187
596 4 2 0 1 130 138 137 187
597 4 2 0 1 130 137 186 187
598 4 2 0 1 130 186 179 187
599 4 2 0 1 130 179 180 187
600 4 2 0 1 130 180 131 187
601 4 2 0 1 131 132 139 188
602 4 2 0 1 131 139 138 188
603 4 2 0 1 131 138 187 188
604 4 2 0 1 131 187 180 188
605 4 2 0 1 131 180 181 188
606 4 2 0 1 131 181 132 188
607 4 2 0 1 132 133 140 189
608 4 2 0 1 132 140 139 189
609 4 2 0 1 132 139 188 189
610 4 2 0 1 132 188 181 189
611 4 2 0 1 132 181 182 189
612 4 2 0 1 132 182 133 189
613 4 2 0 1 134 135 142 191
614 4 2 0 1 134 142 141 191
615 4 2 0 1 134 141 190 191
616 4 2 0 1 134 190 183 191
617 4 2 0 1 134 183 184 191
618 4 2 0 1 134 184 135 191
619 4 2 0 1 135 136 143 192
620 4 2 0 1 135 143 142 192
621 4 2 0 1 135 142 191 192
622 4 2 0 1 135 191 184 192
623 4 2 0 1 135 184 185 192
624 4 2 0 1 135 185 136 192
625 4 2 0 1 136 137 144 193
626 4 2 0 1 136 144 143 193
627 4 2 0 1 136 143 192 193
628 4 2 0 1 136 192 185 193
629 4 2 0 1 136 185 186 193
630 4 2 0 1 136 186 137 193
631 4 2 0 1 137 138 145 194
632 4 2 0 1 137 145 144 194
633 4 2 0 1 137 144 193 194
634 4 2 0 1 137 193 186 194
635 4 2 0 1 137 186 187 194
636 4 2 0 1 137 187 138 194
637 4 2 0 1 138 139 146 195
638 4 2 0 1 138 146 145 195
639 4 2 0 1 138 145 194 195
640 4 2 0 1 138 194 187 195
641 4 2 0 1 138 187 188 195
642 4 2 0 1 138 188 139 195
643 4 2 0 1 139 140 147 196
644 4 2 0 1 139 147 146 196
645 4 2 0 1 139 146 195 196
646 4 2 0 1 139 195 188 196
647 4 2 0 1 139 188 189 196
648 4 2 0 1 139 189 140 196
649 4 2 0 1 148 149 156 205
650 4 2 0 1 148 156 155 205
651 4 2 0 1 148 155 204 205
652 4 2 0 1 148 204 197 205
653 4 2 0 1 148 197 198 205
654 4 2 0 1 148 198 149 205
655 4 2 0 1 149 150 157 206
656 4 2 0 1 149 157 156 206
657 4 2 0 1 149 156 205 206
658 4 2 0 1 149 205 198 206
659 4 2 0 1 149 198 199 206
660 4 2 0 1 149 199 150 206
661 4 2 0 1 150 151 158 207
662 4 2 0 1 150 158 157 207
663 4 2 0 1 150 157 206 207
664 4 2 0 1 150 206 199 207
665 4 2 0 1 150 199 200 207
666 4 2 0 1 150 200 151 207
667 4 2 0 1 151 152 159 208
668 4 2 0 1 151 159 158 208
669 4 2 0 1 151 158 207 208
670 4 2 0 1 151 207 200 208
671 4 2 0 1 151 200 201 208
672 4 2 0 1 151 201 152 208
673 4 2 0 1 152 153 160 209
674 4 2 0 1 152 160 159 209
675 4 2 0 1 152 159 208 209
676 4 2 0 1 152 208 201 209
677 4 2 0 1 152 201 202 209
678 4 2 0 1 152 202 153 209
679 4 2 0 1 153 154 161 210
680 4 2 0 1 153 161 160 210
681 4 2 0 1 153 160 209 210
682 4 2 0 1 153 209 202 210
683 4 2 0 1 153 202 203 210
684 4 2 0 1 153 203 154 210
685 4 2 0 1 155 156 163 212
686 4 2 0 1 155 163 162 212
687 4 2 0 1 155 162 211 212
688 4 2 0 1 155 211 204 212
689 4 2 0 1 155 204 205 212
690 4 2 0 1 155 205 156 212
691 4 2 0 1 156 157 164 213
692 4 2 0 1 156 164 163 213
693 4 2 0 1 156 163 212 213
694 4 2 0 1 156 212 205 213
695 4 2 0 1 156 205 206 213
696 4 2 0 1 156 206 157 213
697 4 2 0 1 157 158 165 214
698 4 2 0 1 157 165 164 214
699 4 2 0 1 157 164 213 214
700 4 2 0 1 157 213 206 214
701 4 2 0 1 157 206 207 214
702 4 2 0 1 157 207 158 214
703 4 2 0 1 158 159 166 215
704 4 2 0 1 158 166 165 215
705 4 2 0 1 158 165 214 215
706 4 2 0 1 158 214 207 215
707 4 2 0 1 158 207 208 215
708 4 2 0 1 158 208 159 215
709 4 2 0 1 159 160 167 216
710 4 2 0 1 159 167 166 216
711 4 2 0 1 159 166 215 216
712 4 2 0 1 159 215 208 216
713 4 2 0 1 159 208 209 216
714 4 2 0 1 159 209 160 216
715 4 2 0 1 160 161 168 217
716 4 2 0 1 160 168 167 217
717 4 2 0 1 160 167 216 217
718 4 2 0 1 160 216 209 217
719 4 2 0 1 160 209 210 217
720 4 2 0 1 160 210 161 217
721 4 2 0 1 162 163 170 219
722 4 2 0 1 162 170 169 219
723 4 2 0 1 162 169 218 219
724 4 2 0 1 162 218 211 219
725 4 2 0 1 162 211 212 219
726 4 2 0 1 162 212 163 219
727 4 2 0 1 163 164 171 220
728 4 2 0 1 163 171 170 220
729 4 2 0 1 163 170 219 220
730 4 2 0 1 163 219 212 220
731 4 2 0 1 163 212 213 220
732 4 2 0 1 163 213 164 220
733 4 2 0 1 164 165 172 221
734 4 2 0 1 164 172 171 221
735 4 2 0 1 164 171 220 221
736 4 2 0 1 164 220 213 221
737 4 2 0 1 164 213 214 221
738 4 2 0 1 164 214 165 221
739 4 2 0 1 165 166 173 222
740 4 2 0 1 165 173 172 222
741 4 2 0 1 165 172 221 222
742 4 2 0 1 165 221 214 222
743 4 2 0 1 165 214 215 222
744 4 2 0 1 165 215 166 222
745 4 2 0 1 166 167 174 223
746 4 2 0 1 166 174 173 223
747 4 2 0 1 166 173 222 223
748 4 2 0 1 166 222 215 223
749 4 2 0 1 166 215 216 223
750 4 2 0 1 166 216 167 223
751 4 2 0 1 167 168 175 224
752 4 2 0 1 167 175 174 224
753 4 2 0 1 167 174 223 224
754 4 2 0 1 167 223 216 224
755 4 2 0 1 167 216 217 224
756 4 2 0 1 167 217 168 224
757 4 2 0 1 169 170 177 226
758 4 2 0 1 169 177 176 226
759 4 2 0 1 169 176 225 226
760 4 2 0 1 169 225 218 226
761 4 2 0 1 169 218 219 226
762 4 2 0 1 169 219 170 226
763 4 2 0 1 170 171 178 227
764 4 2 0 1 170 178 177 227
765 4 2 0 1 170 177 226 227
766 4 2 0 1 170 226 219 227
767 4 2 0 1 170 219 220 227
768 4 2 0 1 170 220 171 227
769 4 2 0 1 171 172 179 228
770 4 2 0 1 171 179 178 228
771 4 2 0 1 171 178 227 228
772 4 2 0 1 171 227 220 228
773 4 2 0 1 171 220 221 228
774 4 2 0 1 171 221 172 228
775 4 2 0 1 172 173 180 229
776 4 2 0 1 172 180 179 229
777 4 2 0 1 172 179 228 229
778 4 2 0 1 172 228 221 229
779 4 2 0 1 172 221 222 229
780 4 2 0 1 172 222 173 229
781 4 2 0 1 173 174 181 230
782 4 2 0 1 173 181 180 230
783 4 2 0 1 173 180 229 230
784 4 2 0 1 173 229 222 230
785 4 2 0 1 173 222 223 230
786 4 2 0 1 173 223 174 230
787 4 2 0 1 174 175 182 231
788 4 2 0 1 174 182 181 231
789 4 2 0 1 174 181 230 231
790 4 2 0 1 174 230 223 231
791 4 2 0 1 174 223 224 231
792 4 2 0 1 174 224 175 231
793 4 2 0 1 176 177 184 233
794 4 2 0 1 176 184 183 233
795 4 2 0 1 176 183 232 233
796 4 2 0 1 176 232 225 233
797 4 2 0 1 176 225 226 233
798 4 2 0 1 176 226 177 233
799 4 2 0 1 177 178 185 234
800 4 2 0 1 177 185 184 234
801 4 2 0 1 177 184 233 234
802 4 2 0 1 177 233 226 234
803 4 2 0 1 177 226 227 234
804 4 2 0 1 177 227 178 234
805 4 2 0 1 178 179 186 235
806 4 2 0 1 178 186 185 235
807 4 2 0 1 178 185 234 235
808 4 2 0 1 178 234 227 235
809 4 2 0 1 178 227 228 235
810 4 2 0 1 178 228 179 235
811 4 2 0 1 179 180 187 236
812 4 2 0 1 179 187 186 236
813 4 2 0 1 179 186 235 236
814 4 2 0 1 179 235 228 236
815 4 2 0 1 179 228 229 236
816 4 2 0 1 179 229 180 236
817 4 2 0 1 180 181 188 237
818 4 2 0 1 180 188 187 237
819 4 2 0 1 180 187 236 237
820 4 2 0 1 180 236 229 237
821 4 2 0 1 180 229 230 237
822 4 2 0 1 180 230 181 237
823 4 2 0 1 181 182 189 238
824 4 2 0 1 181 189 188 238
825 4 2 0 1 181 188 237 238
826 4 2 0 1 181 237 230 238
827 4 2 0 1 181 230 231 238
828 4 2 0 1 181 231 182 238
829 4 2 0 1 183 184 191 240
830 4 2 0 1 183 191 190 240
831 4 2 0 1 183 190 239 240
832 4 2 0 1 183 239 232 240
833 4 2 0 1 183 232 233 240
834 4 2 0 1 183 233 184 240
835 4 2 0 1 184 185 192 241
836 4 2 0 1 184 192 191 241
837 4 2 0 1 184 191 240 241
838 4 2 0 1 184 240 233 241
839 4 2 0 1 184 233 234 241
840 4 2 0 1 184 234 185 241
841 4 2 0 1 185 186 193 242
842 4 2 0 1 185 193 192 242
843 4 2 0 1 185 192 241 242
844 4 2 0 1 185 241 234 242
845 4 2 0 1 185 234 235 242
846 4 2 0 1 185 235 186 242
847 4 2 0 1 186 187 194 243
848 4 2 0 1 186 194 193 243
849 4 2 0 1 186 193 242 243
850 4 2 0 1 186 242 235 243
851 4 2 0 1 186 235 236 243
852 4 2 0 1 186 236 187 243
853 4 2 0 1 187 188 195 244
854 4 2 0 1 187 195 194 244
855 4 2 0 1 187 194 243 244
856 4 2 0 1 187 243 236 244
857 4 2 0 1 187 236 237 244
858 4 2 0 1 187 237 188 244
859 4 2 0 1 188 189 196 245
860 4 2 0 1 188 196 195 245
861 4 2 0 1 188 195 244 245
862 4 2 0 1 188 244 237 245
863 4 2 0 1 188 237 238 245
864 4 2 0 1 188 238 189 245
865 4 2 0 1 197 198 205 254
866 4 2 0 1 197 205 204 254
867 4 2 0 1 197 204 253 254
868 4 2 0 1 197 253 246 254
869 4 2 0 1 197 246 247 254
870 4 2 0 1 197 247 198 254
871 4 2 0 1 198 199 206 255
872 4 2 0 1 198 206 205 255
873 4 2 0 1 198 205 254 255
874 4 2 0 1 198 254 247 255
875 4 2 0 1 198 247 248 255
876 4 2 0 1 198 248 199 255
877 4 2 0 1 199 200 207 256
878 4 2 0 1 199 207 206 256
879 4 2 0 1 199 206 255 256
880 4 2 0 1 199 255 248 256
881 4 2 0 1 199 248 249 256
882 4 2 0 1 199 249 200 256
883 4 2 0 1 200 201 208 257
884 4 2 0 1 200 208 207 257
885 4 2 0 1 200 207 256 257
886 4 2 0 1 200 256 249 257
887 4 2 0 1 200 249 250 257
888 4 2 0 1 200 250 201 257
889 4 2 0 1 201 202 209 258
890 4 2 0 1 201 209 208 258
891 4 2 0 1 201 208 257 258
892 4 2 0 1 201 257 250 258
893 4 2 0 1 201 250 251 258
894 4 2 0 1 201 251 202 258
895 4 2 0 1 202 203 210 259
896 4 2 0 1 202 210 209 259
897 4 2 0 1 202 209 258 259
898 4 2 0 1 202 258 251 259
899 4 2 0 1 202 251 252 259
900 4 2 0 1 202 252 203 259
901 4 2 0 1 204 205 212 261
902 4 2 0 1 204 212 211 261
903 4 2 0 1 204 211 260 261
904 4 2 0 1 204 260 253 261
905 4 2 0 1 204 253 254 261
906 4 2 0 1 204 254 205 261
907 4 2 0 1 205 206 213 262
908 4 2 0 1 205 213 212 262
909 4 2 0 1 205 212 261 262
910 4 2 0 1 205 261 254 262
911 4 2 0 1 205 254 255 262
912 4 2 0 1 205 255 206 262
913 4 2 0 1 206 207 214 263
914 4 2 0 1 206 214 213 263
915 4 2 0 1 206 213 262 263
916 4 2 0 1 206 262 255 263
917 4 2 0 1 206 255 256 263
918 4 2 0 1 206 256 207 263
919 4 2 0 1 207 208 215 264
920 4 2 0 1 207 215 214 264
921 4 2 0 1 207 214 263 264
922 4 2 0 1 207 263 256 264
923 4 2 0 1 207 256 257 264
924 4 2 0 1 207 257 208 264
925 4 2 0 1 208 209 216 265
926 4 2 0 1 208 216 215 265
927 4 2 0 1 208 215 264 265
928 4 2 0 1 208 264 257 265
929 4 2 0 1 208 257 258 265
930 4 2 0 1 208 258 209 265
931 4 2 0 1 209 210 217 266
932 4 2 0 1 209 217 216 266
933 4 2 0 1 209 216 265 266
934 4 2 0 1 209 265 258 266
935 4 2 0 1 209 258 259 266
936 4 2 0 1 209 259 210 266
937 4 2 0 1 211 212 219 268
938 4 2 0 1 211 219 218 268
939 4 2 0 1 211 218 267 268
940 4 2 0 1 211 267 260 268
941 4 2 0 1 211 260 261 268
942 4 2 0 1 211 261 212 268
943 4 2 0 1 212 213 220 269
944 4 2 0 1 212 220 219 269
945 4 2 0 1 212 219 268 269
946 4 2 0 1 212 268 261 269
947 4 2 0 1 212 261 262 269
948 4 2 0 1 212 262 213 269
949 4 2 0 1 213 214 221 270
950 4 2 0 1 213 221 220 270
951 4 2 0 1 213 220 269 270
952 4 2 0 1 213 269 262 270
953 4 2 0 1 213 262 263 270
954 4 2 0 1 213 263 214 270
955 4 2 0 1 214 215 222 271
956 4 2 0 1 214 222 221 271
957 4 2 0 1 214 221 270 271
958 4 2 0 1 214 270 263 271
959 4 2 0 1 214 263 264 271
960 4 2 0 1 214 264 215 271
961 4 2 0 1 215 216 223 272
962 4 2 0 1 215 223 222 272
963 4 2 0 1 215 222 271 272
964 4 2 0 1 215 271 264 272
965 4 2 0 1 215 264 265 272
966 4 2 0 1 215 265 216 272
967 4 2 0 1 216 217 224 273
968 4 2 0 1 216 224 223 273
969 4 2 0 1 216 223 272 273
970 4 2 0 1 216 272 265 273
971 4 2 0 1 216 265 266 273
972 4 2 0 1 216 266 217 273
973 4 2 0 1 218 219 226 275
974 4 2 0 1 218 226 225 275
975 4 2 0 1 218 225 274 275
976 4 2 0 1 218 274 267 275
977 4 2 0 1 218 267 268 275
978 4 2 0 1 218 268 219 275
979 4 2 0 1 219 220 227 276
980 4 2 0 1 219 227 226 276
981 4 2 0 1 219 226 275 276
982 4 2 0 1 219 275 268 276
983 4 2 0 1 219 268 269 276
984 4 2 0 1 219 269 220 276
985 4 2 0 1 220 221 228 277
986 4 2 0 1 220 228 227 277
987 4 2 0 1 220 227 276 277
988 4 2 0 1 220 276 269 277
989 4 2 0 1 220 269 270 277
990 4 2 0 1 220 270 221 277
991 4 2 0 1 221 222 229 278
992 4 2 0 1 221 229 228 278
993 4 2 0 1 221 228 277 278
994 4 2 0 1 221 277 270 278
995 4 2 0 1 221 270 271 278
996 4 2 0 1 221 271 222 278
997 4 2 0 1 222 223 230 279
998 4 2 0 1 222 230 229 279
999 4 2 0 1 222 229 278 279
1000 4 2 0 1 222 278 271 279
1001 4 2 0 1 222 271 272 279
1002 4 2 0 1 222 272 223 279
1003 4 2 0 1 223 224 231 280
1004 4 2 0 1 223 231 230 280
1005 4 2 0 1 223 230 279 280
1006 4 2 0 1 223 279 272 280
1007 4 2 0 1 223 272 273 280
1008 4 2 0 1 223 273 224 280
1009 4 2 0 1 225 226 233 282
1010 4 2 0 1 225 233 232 282
1011 4 2 0 1 225 232 281 282
1012 4 2 0 1 225 281 274 282
1013 4 2 0 1 225 274 275 282
1014 4 2 0 1 225 275 226 282
1015 4 2 0 1 226 227 234 283
1016 4 2 0 1 226 234 233 283
1017 4 2 0 1 226 233 282 283
1018 4 2 0 1 226 282 275 283
1019 4 2 0 1 226 275 276 283
1020 4 2 0 1 226 276 227 283
1021 4 2 0 1 227 228 235 284
1022 4 2 0 1 227 235 234 284
1023 4 2 0 1 227 234 283 284
1024 4 2 0 1 227 283 276 284
1025 4 2 0 1 227 276 277 284
1026 4 2 0 1 227 277 228 284
1027 4 2 0 1 228 229 236 285
1028 4 2 0 1 228 236 235 285
1029 4 2 0 1 228 235 284 285
1030 4 2 0 1 228 284 277 285
1031 4 2 0 1 228 277 278 285
1032 4 2 0 1 228 278 229 285
1033 4 2 0 1 229 230 237 286
1034 4 2 0 1 229 237 236 286
1035 4 2 0 1 229 236 285 286
1036 4 2 0 1 229 285 278 286
1037 4 2 0 1 229 278 279 286
1038 4 2 0 1 229 279 230 286
1039 4 2 0 1 230 231 238 287
1040 4 2 0 1 230 238 237 287
1041 4 2 0 1 230 237 286 287
1042 4 2 0 1 230 286 279 287
1043 4 2 0 1 230 279 280 287
1044 4 2 0 1 230 280 231 287
1045 4 2 0 1 232 233 240 289
1046 4 2 0 1 232 240 239 289
1047 4 2 0 1 232 239 288 289
1048 4 2 0 1 232 288 281 289
1049 4 2 0 1 232 281 282 289
1050 4 2 0 1 232 282 233 289
1051 4 2 0 1 233 234 241 290
1052 4 2 0 1 233 241 240 290
1053 4 2 0 1 233 240 289 290
1054 4 2 0 1 233 289 282 290
1055 4 2 0 1 233 282 283 290
1056 4 2 0 1 233 283 234 290
1057 4 2 0 1 234 235 242 291
1058 4 2 0 1 234 242 241 291
1059 4 2 0 1 234 241 290 291
1060 4 2 0 1 234 290 283 291
1061 4 2 0 1 234 283 284 291
1062 4 2 0 1 234 284 235 291
1063 4 2 0 1 235 236 243 292
1064 4 2 0 1 235 243 242 292
1065 4 2 0 1 235 242 291 292
1066 4 2 0 1 235 291 284 292
1067 4 2 0 1 235 284 285 292
1068 4 2 0 1 235 285 236 292
1069 4 2 0 1 236 237 244 293
1070 4 2 0 1 236 244 243 293
1071 4 2 0 1 236 243 292 293
1072 4 2 0 1 236 292 285 293
1073 4 2 0 1 236 285 286 293
1074 4 2 0 1 236 286 237 293
1075 4 2 0 1 237 238 245 294
1076 4 2 0 1 237 245 244 294
1077 4 2 0 1 237 244 293 294
1078 4 2 0 1 237 293 286 294
1079 4 2 0 1 237 286 287 294
1080 4 2 0 1 237 287 238 294
1081 4 2 0 1 246 247 254 303
1082 4 2 0 1 246 254 253 303
1083 4 2 0 1 246 253 302 303
1084 4 2 0 1 246 302 295 303
1085 4 2 0 1 246 295 296 303
1086 4 2 0 1 246 296 247 303
1087 4 2 0 1 247 248 255 304
1088 4 2 0 1 247 255 254 304
1089 4 2 0 1 247 254 303 304
1090 4 2 0 1 247 303 296 304
1091 4 2 0 1 247 296 297 304
1092 4 2 0 1 247 297 248 304
1093 4 2 0 1 248 249 256 305
1094 4 2 0 1 248 256 255 305
1095 4 2 0 1 248 255 304 305
1096 4 2 0 1 248 304 297 305
1097 4 2 0 1 248 297 298 305
1098 4 2 0 1 248 298 249 305
1099 4 2 0 1 249 250 257 306
1100 4 2 0 1 249 257 256 306
1101 4 2 0 1 249 256 305 306
1102 4 2 0 1 249 305 298 306
1103 4 2 0 1 249 298 299 306
1104 4 2 0 1 249 299 250 306
1105 4 2 0 1 250 251 258 307
1106 4 2 0 1 250 258 257 307
1107 4 2 0 1 250 257 306 307
1108 4 2 0 1 250 306 299 307
1109 4 2 0 1 250 299 300 307
1110 4 2 0 1 250 300 251 307
1111 4 2 0 1 251 252 259 308
1112 4 2 0 1 251 259 258 308
1113 4 2 0 1 251 258 307 308
1114 4 2 0 1 251 307 300 308
1115 4 2 0 1 251 300 301 308
1116 4 2 0 1 251 301 252 308
1117 4 2 0 1 253 254 261 310
1118 4 2 0 1 253 261 260 310
1119 4 2 0 1 253 260 309 310
1120 4 2 0 1 253 309 302 310
1121 4 2 0 1 253 302 303 310
1122 4 2 0 1 253 303 254 310
1123 4 2 0 1 254 255 262 311
1124 4 2 0 1 254 262 261 311
1125 4 2 0 1 254 261 310 311
1126 4 2 0 1 254 310 303 311
1127 4 2 0 1 254 303 304 311
1128 4 2 0 1 254 304 255 311
1129 4 2 0 1 255 256 263 312
1130 4 2 0 1 255 263 262 312
1131 4 2 0 1 255 262 311 312
1132 4 2 0 1 255 311 304 312
1133 4 2 0 1 255 304 305 312
1134 4 2 0 1 255 305 256 312
1135 4 2 0 1 256 257 264 313
1136 4 2 0 1 256 264 263 313
1137 4 2 0 1 256 263 312 313
1138 4 2 0 1 256 312 305 313
1139 4 2 0 1 256 305 306 313
1140 4 2 0 1 256 306 257 313
1141 4 2 0 1 257 258 265 314
1142 4 2 0 1 257 265 264 314
1143 4 2 0 1 257 264 313 314
1144 4 2 0 1 257 313 306 314
1145 4 2 0 1 257 306 307 314
1146 4 2 0 1 257 307 258 314
1147 4 2 0 1 258 259 266 315
1148 4 2 0 1 258 266 265 315
1149 4 2 0 1 258 265 314 315
1150 4 2 0 1 258 314 307 315
1151 4 2 0 1 258 307 308 315
1152 4 2 0 1 258 308 259 315
1153 4 2 0 1 260 261 268 317
1154 4 2 0 1 260 268 267 317
1155 4 2 0 1 260 267 316 317
1156 4 2 0 1 260 316 309 317
1157 4 2 0 1 260 309 310 317
1158 4 2 0 1 260 310 261 317
1159 4 2 0 1 261 262 269 318
1160 4 2 0 1 261 269 268 318
1161 4 2 0 1 261 268 317 318
1162 4 2 0 1 261 317 310 318
1163 4 2 0 1 261 310 311 318
1164 4 2 0 1 261 311 262 318
1165 4 2 0 1 262 263 270 319
1166 4 2 0 1 262 270 269 319
1167 4 2 0 1 262 269 318 319
1168 4 2 0 1 262 318 311 319
1169 4 2 0 1 262 311 312 319
1170 4 2 0 1 262 312 263 319
1171 4 2 0 1 263 264 271 320
1172 4 2 0 1 263 271 270 320
1173 4 2 0 1 263 270 319 320
1174 4 2 0 1 263 319 312 320
1175 4 2 0 1 263 312 313 320
1176 4 2 0 1 263 313 264 320
1177 4 2 0 1 264 265 272 321
1178 4 2 0 1 264 272 271 321
1179 4 2 0 1 264 271 320 321
1180 4 2 0 1 264 320 313 321
1181 4 2 0 1 264 313 314 321
1182 4 2 0 1 264 314 265 321
1183 4 2 0 1 265 266 273 322
1184 4 2 0 1 265 273 272 322
1185 4 2 0 1 265 272 321 322
1186 4 2 0 1 265 321 314 322
1187 4 2 0 1 265 314 315 322
1188 4 2 0 1 265 315 266 322
1189 4 2 0 1 267 268 275 324
1190 4 2 0 1 267 275 274 324
1191 4 2 0 1 267 274 323 324
1192 4 2 0 1 267 323 316 324
1193 4 2 0 1 267 316 317 324
1194 4 2 0 1 267 317 268 324
1195 4 2 0 1 268 269 276 325
1196 4 2 0 1 268 276 275 325
1197 4 2 0 1 268 275 324 325
1198 4 2 0 1 268 324 317 325
1199 4 2 0 1 268 317 318 325
1200 4 2 0 1 268 318 269 325
1201 4 2 0 1 269 270 277 326
1202 4 2 0 1 269 277 276 326
1203 4 2 0 1 269 276 325 326
1204 4 2 0 1 269 325 318 326
1205 4 2 0 1 269 318 319 326
1206 4 2 0 1 269 319 270 326
1207 4 2 0 1 270 271 278 327
1208 4 2 0 1 270 278 277 327
1209 4 2 0 1 270 277 326 327
1210 4 2 0 1 270 326 319 327
1211 4 2 0 1 270 319 320 327
1212 4 2 0 1 270 320 271 327
1213 4 2 0 1 271 272 279 328
1214 4 2 0 1 271 279 278 328
1215 4 2 0 1 271 278 327 328
1216 4 2 0 1 271 327 320 328
1217 4 2 0 1 271 320 321 328
1218 4 2 0 1 271 321 272 328
1219 4 2 0 1 272 273 280 329
1220 4 2 0 1 272 280 279 329
1221 4 2 0 1 272 279 328 329
1222 4 2 0 1 272 328 321 329
1223 4 2 0 1 272 321 322 329
1224 4 2 0 1 272 322 273 329
1225 4 2 0 1 274 275 282 331
1226 4 2 0 1 274 282 281 331
1227 4 2 0 1 274 281 330 331
1228 4 2 0 1 274 330 323 331
1229 4 2 0 1 274 323 324 331
1230 4 2 0 1 274 324 275 331
1231 4 2 0 1 275 276 283 332
1232 4 2 0 1 275 283 282 332
1233 4 2 0 1 275 282 331 332
1234 4 2 0 1 275 331 324 332
1235 4 2 0 1 275 324 325 332
1236 4 2 0 1 275 325 276 332
1237 4 2 0 1 276 277 284 333
1238 4 2 0 1 276 284 283 333
1239 4 2 0 1 276 283 332 333
1240 4 2 0 1 276 332 325 333
1241 4 2 0 1 276 325 326 333
1242 4 2 0 1 276 326 277 333
1243 4 2 0 1 277 278 285 334
1244 4 2 0 1 277 285 284 334
1245 4 2 0 1 277 284 333 334
1246 4 2 0 1 277 333 326 334
1247 4 2 0 1 277 326 327 334
1248 4 2 0 1 277 327 278 334
1249 4 2 0 1 278 279 286 335
1250 4 2 0 1 278 286 285 335
1251 4 2 0 1 278 285 334 335
1252 4 2 0 1 278 334 327 335
1253 4 2 0 1 278 327 328 335
1254 4 2 0 1 278 328 279 335
1255 4 2 0 1 279 280 287 336
1256 4 2 0 1 279 287 286 336
1257 4 2 0 1 279 286 335 336
1258 4 2 0 1 279 335 328 336
1259 4 2 0 1 279 328 329 336
1260 4 2 0 1 279 329 280 336
1261 4 2 0 1 281 282 289 338
1262 4 2 0 1 281 289 288 338
1263 4 2 0 1 281 288 337 338
1264 4 2 0 1 281 337 330 338
1265 4 2 0 1 281 330 331 338
1266 4 2 0 1 281 331 282 338
1267 4 2 0 1 282 283 290 339
1268 4 2 0 1 282 290 289 339
1269 4 2 0 1 282 289 338 339
1270 4 2 0 1 282 338 331 339
1271 4 2 0 1 282 331 332 339
1272 4 2 0 1 282 332 283 339
1273 4 2 0 1 283 284 291 340
1274 4 2 0 1 283 291 290 340
1275 4 2 0 1 283 290 339 340
1276 4 2 0 1 283 339 332 340
1277 4 2 0 1 283 332 333 340
1278 4 2 0 1 283 333 284 340
1279 4 2 0 1 284 285 292 341
1280 4 2 0 1 284 292 291 341
1281 4 2 0 1 284 291 340 341
1282 4 2 0 1 284 340 333 341
1283 4 2 0 1 284 333 334 341
1284 4 2 0 1 284 334 285 341
1285 4 2 0 1 285 286 293 342
1286 4 2 0 1 285 293 292 342
1287 4 2 0 1 285 292 341 342
1288 4 2 0 1 285 341 334 342
1289 4 2 0 1 285 334 335 342
1290 4 2 0 1 285 335 286 342
1291 4 2 0 1 286 287 294 343
1292 4 2 0 1 286 294 293 343
1293 4 2 0 1 286 293 342 343
1294 4 2 0 1 286 342 335 343
1295 4 2 0 1 286 335 336 343
1296 4 2 0 1 286 336 287 343
$EndElements
